<svg width="24" height="24" viewBox="0 0 24 24" fill="none" xmlns="http://www.w3.org/2000/svg">
<path d="M10.5 0C9.90326 0 9.33097 0.237053 8.90901 0.65901C8.48705 1.08097 8.25 1.65326 8.25 2.25C8.25 2.84674 8.48705 3.41903 8.90901 3.84099C9.33097 4.26295 9.90326 4.5 10.5 4.5C11.0967 4.5 11.669 4.26295 12.091 3.84099C12.5129 3.41903 12.75 2.84674 12.75 2.25C12.75 1.65326 12.5129 1.08097 12.091 0.65901C11.669 0.237053 11.0967 0 10.5 0ZM5.625 0.012C5.32663 0.012 5.04048 0.130526 4.8295 0.341505C4.61853 0.552483 4.5 0.838631 4.5 1.137V4.875C4.5 6.3225 5.6775 7.5 7.125 7.5H7.5V22.875C7.5 23.1734 7.61853 23.4595 7.8295 23.6705C8.04048 23.8815 8.32663 24 8.625 24C8.92337 24 9.20952 23.8815 9.4205 23.6705C9.63147 23.4595 9.75 23.1734 9.75 22.875V17.25H11.25V22.875C11.25 23.1734 11.3685 23.4595 11.5795 23.6705C11.7905 23.8815 12.0766 24 12.375 24C12.6734 24 12.9595 23.8815 13.1705 23.6705C13.3815 23.4595 13.5 23.1734 13.5 22.875V7.5075L18.3795 7.5C18.6779 7.4994 18.9638 7.3803 19.1743 7.1689C19.3849 6.9575 19.5028 6.67112 19.5023 6.37275C19.5017 6.07438 19.3826 5.78847 19.1712 5.57791C18.9598 5.36736 18.6734 5.2494 18.375 5.25H18.3705L12.7883 5.2575C12.7748 5.25675 12.7635 5.25 12.75 5.25H7.125C7.02554 5.25 6.93016 5.21049 6.85983 5.14016C6.78951 5.06984 6.75 4.97446 6.75 4.875V1.137C6.75 0.838631 6.63147 0.552483 6.4205 0.341505C6.20952 0.130526 5.92337 0.012 5.625 0.012Z" fill="black"/>
</svg>
