<svg width="23" height="23" viewBox="0 0 23 23" fill="none" xmlns="http://www.w3.org/2000/svg">
<path d="M13.6562 17.9687H9.34375C8.947 17.9687 8.625 18.2907 8.625 18.6875C8.625 19.0842 8.947 19.4062 9.34375 19.4062H13.6562C14.053 19.4062 14.375 19.0842 14.375 18.6875C14.375 18.2907 14.053 17.9687 13.6562 17.9687ZM13.5075 8.47619L12.6737 9.30994L9.78255 8.98866C9.39011 8.9441 9.03289 9.22908 8.98905 9.62367C8.9452 10.0183 9.22947 10.3733 9.62406 10.4172L11.3721 10.6112L10.1243 11.8593H8.98438C8.58762 11.8593 8.26562 12.1813 8.26562 12.5781C8.26562 12.9748 8.58762 13.2968 8.98438 13.2968H9.70312V14.0156C9.70312 14.4123 10.0251 14.7343 10.4219 14.7343C10.8186 14.7343 11.1406 14.4123 11.1406 14.0156V12.8757L12.3884 11.6279L12.5828 13.3759C12.6234 13.7439 12.9346 14.0156 13.2958 14.0156C13.3224 14.0156 13.349 14.0142 13.3763 14.0113C13.7709 13.9674 14.0552 13.612 14.0113 13.2178L13.69 10.3266L14.5241 9.4925C14.8048 9.21183 14.8048 8.75686 14.5241 8.47619C14.2431 8.19552 13.7881 8.19552 13.5075 8.47619Z" fill="#6D14B3"/>
<path d="M15.4531 0.71875H7.54688C5.76366 0.71875 4.3125 2.16991 4.3125 3.95312V19.0469C4.3125 20.8301 5.76366 22.2812 7.54688 22.2812H15.4531C17.2367 22.2812 18.6875 20.8301 18.6875 19.0469V3.95312C18.6875 2.16991 17.2367 0.71875 15.4531 0.71875ZM13.8776 2.15625C13.6958 2.64177 13.4845 3.20598 13.3389 3.59375H9.66216L9.12309 2.15625H13.8776ZM17.25 19.0469C17.25 20.0377 16.4439 20.8438 15.4531 20.8438H7.54688C6.55608 20.8438 5.75 20.0377 5.75 19.0469V3.95312C5.75 2.96233 6.55608 2.15625 7.54688 2.15625H7.58784L8.40363 4.33119C8.56031 4.74986 8.96605 5.03125 9.41311 5.03125H13.588C14.0343 5.03125 14.4397 4.75094 14.5967 4.33406C14.7746 3.86148 15.1793 2.78012 15.4129 2.15625H15.4531C16.4439 2.15625 17.25 2.96233 17.25 3.95312V19.0469Z" fill="#6D14B3"/>
</svg>
