<svg width="24" height="24" viewBox="0 0 24 24" fill="none" xmlns="http://www.w3.org/2000/svg">
<path d="M18.375 3C17.6846 2.99994 17.022 3.27187 16.5307 3.75687C16.0394 4.24188 15.7589 4.90092 15.75 5.59125C15.75 8.17875 18.375 9.375 18.375 9.375C18.375 9.375 21 8.17875 21 5.59125C20.9911 4.90092 20.7106 4.24188 20.2193 3.75687C19.728 3.27187 19.0654 2.99994 18.375 3ZM18.375 6.705C18.158 6.70057 17.9471 6.63216 17.7687 6.50836C17.5904 6.38455 17.4526 6.21086 17.3726 6.00905C17.2926 5.80725 17.274 5.58631 17.319 5.37395C17.364 5.16159 17.4708 4.96725 17.6258 4.81531C17.7809 4.66337 17.9773 4.56057 18.1906 4.51983C18.4038 4.47908 18.6243 4.50219 18.8244 4.58625C19.0246 4.67032 19.1955 4.8116 19.3156 4.99239C19.4358 5.17317 19.5 5.38541 19.5 5.6025C19.4941 5.89695 19.373 6.17735 19.1626 6.38349C18.9523 6.58963 18.6695 6.70506 18.375 6.705Z" fill="black"/>
<path d="M3 21L3.79125 18.375L3 15.75L7.875 18.375L3 21Z" fill="black"/>
<path d="M17.8125 18.75H9C8.90054 18.75 8.80516 18.7105 8.73483 18.6402C8.66451 18.5698 8.625 18.4745 8.625 18.375C8.625 18.2755 8.66451 18.1802 8.73483 18.1098C8.80516 18.0395 8.90054 18 9 18H17.8125C18.2601 18 18.6893 17.8222 19.0057 17.5057C19.3222 17.1893 19.5 16.7601 19.5 16.3125C19.5 15.8649 19.3222 15.4357 19.0057 15.1193C18.6893 14.8028 18.2601 14.625 17.8125 14.625H6.1875C5.54103 14.625 4.92105 14.3682 4.46393 13.9111C4.00681 13.454 3.75 12.834 3.75 12.1875C3.75 11.541 4.00681 10.921 4.46393 10.4639C4.92105 10.0068 5.54103 9.75 6.1875 9.75H18.375C18.4745 9.75 18.5698 9.78951 18.6402 9.85983C18.7105 9.93016 18.75 10.0255 18.75 10.125C18.75 10.2245 18.7105 10.3198 18.6402 10.3902C18.5698 10.4605 18.4745 10.5 18.375 10.5H6.1875C5.73995 10.5 5.31073 10.6778 4.99426 10.9943C4.67779 11.3107 4.5 11.7399 4.5 12.1875C4.5 12.6351 4.67779 13.0643 4.99426 13.3807C5.31073 13.6972 5.73995 13.875 6.1875 13.875H17.8125C18.459 13.875 19.079 14.1318 19.5361 14.5889C19.9932 15.046 20.25 15.666 20.25 16.3125C20.25 16.959 19.9932 17.579 19.5361 18.0361C19.079 18.4932 18.459 18.75 17.8125 18.75Z" fill="black"/>
</svg>
