<svg width="52" height="52" viewBox="0 0 52 52" fill="none" xmlns="http://www.w3.org/2000/svg">
<path d="M37.375 27.625C39.9462 27.625 42.4596 26.8626 44.5974 25.4341C46.7353 24.0057 48.4015 21.9753 49.3855 19.5999C50.3694 17.2244 50.6269 14.6106 50.1252 12.0888C49.6236 9.56708 48.3855 7.2507 46.5674 5.43262C44.7493 3.61454 42.433 2.3764 39.9112 1.8748C37.3895 1.37319 34.7756 1.63063 32.4001 2.61457C30.0247 3.59851 27.9944 5.26475 26.5659 7.40259C25.1375 9.54043 24.375 12.0538 24.375 14.625C24.375 18.0728 25.7447 21.3794 28.1826 23.8174C30.6206 26.2554 33.9272 27.625 37.375 27.625ZM34.125 16.25C33.6941 16.25 33.2807 16.0788 32.976 15.7741C32.6712 15.4693 32.5 15.056 32.5 14.625V9.42501C32.5 8.99403 32.6712 8.5807 32.976 8.27596C33.2807 7.97121 33.6941 7.80001 34.125 7.80001H36.0263C36.1247 7.46247 36.33 7.16597 36.6113 6.95501C36.8926 6.74404 37.2347 6.63001 37.5863 6.63001C37.9379 6.63001 38.28 6.74404 38.5613 6.95501C38.8426 7.16597 39.0478 7.46247 39.1463 7.80001H40.625C41.056 7.80001 41.4693 7.97121 41.7741 8.27596C42.0788 8.5807 42.25 8.99403 42.25 9.42501C42.25 9.85598 42.0788 10.2693 41.7741 10.5741C41.4693 10.8788 41.056 11.05 40.625 11.05H35.75V13H40.625C41.056 13 41.4693 13.1712 41.7741 13.476C42.0788 13.7807 42.25 14.194 42.25 14.625V19.825C42.25 20.256 42.0788 20.6693 41.7741 20.9741C41.4693 21.2788 41.056 21.45 40.625 21.45H39.1463C39.0478 21.7875 38.8426 22.084 38.5613 22.295C38.28 22.506 37.9379 22.62 37.5863 22.62C37.2347 22.62 36.8926 22.506 36.6113 22.295C36.33 22.084 36.1247 21.7875 36.0263 21.45H34.125C33.6941 21.45 33.2807 21.2788 32.976 20.9741C32.6712 20.6693 32.5 20.256 32.5 19.825C32.5 19.394 32.6712 18.9807 32.976 18.676C33.2807 18.3712 33.6941 18.2 34.125 18.2H39V16.25H34.125ZM50.1475 39C49.8064 38.0906 49.1484 37.335 48.2944 36.8722C47.4405 36.4094 46.4482 36.2706 45.5 36.4813L39 37.8138C39.016 37.4998 39.016 37.1852 39 36.8713C38.9832 36.2282 38.8393 35.5948 38.5766 35.0076C38.3139 34.4204 37.9376 33.8909 37.4693 33.4499C37.001 33.0088 36.4501 32.6647 35.8482 32.4376C35.2463 32.2104 34.6055 32.1046 33.9625 32.1263C31.8509 32.1908 29.755 31.7448 27.8525 30.8263L24.7813 29.4775C23.9566 29.1212 23.0388 29.0414 22.165 29.25C22.0522 29.2651 21.9425 29.298 21.84 29.3475L19.825 30.2575C20.4201 31.8724 20.5771 33.616 20.28 35.3113L18.3625 45.6138C18.3625 45.8575 18.2325 46.085 18.1675 46.3288L26.8613 49.6763C28.0299 50.1404 29.2763 50.3775 30.5338 50.375C31.8204 50.3744 33.0948 50.1261 34.2875 49.6438L47.7588 44.1838C48.7404 43.7841 49.5333 43.0262 49.9769 42.0636C50.4205 41.1011 50.4815 40.0059 50.1475 39ZM13 28.0963L3.54253 26.6663C3.30739 26.6232 3.06566 26.6326 2.83456 26.6937C2.60346 26.7548 2.38868 26.8662 2.20556 27.0198C2.02243 27.1735 1.87545 27.3656 1.7751 27.5826C1.67476 27.7995 1.62352 28.036 1.62503 28.275V47.775C1.62503 48.206 1.79624 48.6193 2.10098 48.9241C2.40573 49.2288 2.81906 49.4 3.25003 49.4H10.4C11.5823 49.3518 12.7093 48.8862 13.5809 48.086C14.4525 47.2858 15.0124 46.2026 15.1613 45.0288L17.0788 34.71C17.2279 33.9135 17.217 33.0952 17.0468 32.3029C16.8766 31.5106 16.5505 30.7601 16.0875 30.095C15.7346 29.5706 15.279 29.1231 14.7484 28.7796C14.2177 28.4361 13.623 28.2036 13 28.0963Z" fill="#6D14B3"/>
</svg>
