<svg width="24" height="24" viewBox="0 0 24 24" fill="none" xmlns="http://www.w3.org/2000/svg">
<path d="M22.0001 5.07996C22.0009 4.47018 21.8207 3.87387 21.4823 3.36659C21.144 2.85931 20.6626 2.46388 20.0993 2.23042C19.536 1.99695 18.916 1.93595 18.318 2.05514C17.72 2.17433 17.1708 2.46836 16.7401 2.89996L13.9301 5.70996L7.44006 3.54996C7.26727 3.49565 7.08297 3.48929 6.90685 3.53156C6.73072 3.57383 6.56938 3.66314 6.44006 3.78996L4.06006 6.14996C3.94729 6.26403 3.86362 6.40357 3.81611 6.55678C3.76859 6.70999 3.75863 6.87238 3.78707 7.03025C3.81551 7.18811 3.8815 7.33682 3.97949 7.46383C4.07747 7.59083 4.20457 7.6924 4.35006 7.75996L9.53006 10.11L6.93006 12.71L5.22006 11.85C5.03543 11.75 4.82404 11.7107 4.61584 11.7377C4.40764 11.7646 4.2132 11.8564 4.06006 12L2.29006 13.81C2.10381 13.9973 1.99927 14.2508 1.99927 14.515C1.99927 14.7791 2.10381 15.0326 2.29006 15.22L8.78006 21.71C8.96742 21.8962 9.22087 22.0007 9.48506 22.0007C9.74925 22.0007 10.0027 21.8962 10.1901 21.71L12.0001 19.94C12.1501 19.7914 12.2494 19.5992 12.2835 19.3908C12.3176 19.1824 12.2849 18.9686 12.1901 18.78L11.3301 17.07L13.9301 14.47L16.2801 19.65C16.3476 19.7954 16.4492 19.9225 16.5762 20.0205C16.7032 20.1185 16.8519 20.1845 17.0098 20.2129C17.1676 20.2414 17.33 20.2314 17.4832 20.1839C17.6364 20.1364 17.776 20.0527 17.8901 19.94L20.2501 17.58C20.3769 17.4506 20.4662 17.2893 20.5085 17.1132C20.5507 16.937 20.5444 16.7527 20.4901 16.58L18.3301 10.09L21.1001 7.25996C21.3873 6.97452 21.6148 6.63475 21.7693 6.26047C21.9238 5.88618 22.0023 5.48488 22.0001 5.07996ZM19.6801 5.84996L16.4401 9.08996C16.3132 9.21928 16.2239 9.38062 16.1817 9.55674C16.1394 9.73287 16.1458 9.91716 16.2001 10.09L18.3601 16.57L17.4601 17.47L15.1101 12.3C15.0434 12.1531 14.9421 12.0246 14.815 11.9253C14.6879 11.8261 14.5387 11.7591 14.3801 11.73C14.2201 11.7008 14.0555 11.711 13.9004 11.7598C13.7453 11.8086 13.6045 11.8945 13.4901 12.01L9.37006 16.17C9.22215 16.3177 9.12427 16.5081 9.09019 16.7144C9.0561 16.9207 9.08754 17.1325 9.18006 17.32L10.0001 19L9.44006 19.56L4.41006 14.52L5.00006 14L6.71006 14.86C6.89755 14.9525 7.10932 14.9839 7.31561 14.9498C7.52189 14.9157 7.7123 14.8179 7.86006 14.67L12.0001 10.51C12.115 10.396 12.2005 10.2558 12.2492 10.1014C12.298 9.94708 12.3086 9.7832 12.2801 9.62387C12.2516 9.46454 12.1848 9.31451 12.0855 9.18668C11.9862 9.05884 11.8574 8.95702 11.7101 8.88996L6.50006 6.53996L7.40006 5.63996L13.8801 7.79996C14.0529 7.85427 14.2372 7.86062 14.4133 7.81835C14.5894 7.77608 14.7507 7.68677 14.8801 7.55996L18.1201 4.31996C18.2197 4.21806 18.3387 4.13709 18.4701 4.08182C18.6014 4.02654 18.7425 3.99807 18.8851 3.99807C19.0276 3.99807 19.1687 4.02654 19.3 4.08182C19.4314 4.13709 19.5504 4.21806 19.6501 4.31996C19.7544 4.4166 19.8369 4.53438 19.892 4.66544C19.9472 4.79649 19.9738 4.93781 19.9701 5.07996C19.9755 5.22115 19.9526 5.36201 19.9028 5.49424C19.853 5.62648 19.7773 5.74742 19.6801 5.84996Z" fill="black"/>
</svg>
