<svg width="48" height="48" viewBox="0 0 48 48" fill="none" xmlns="http://www.w3.org/2000/svg">
<g clip-path="url(#clip0_56_55)">
<mask id="mask0_56_55" style="mask-type:luminance" maskUnits="userSpaceOnUse" x="0" y="0" width="48" height="48">
<path d="M0 0H47.5V47.5H0V0Z" fill="white"/>
</mask>
<g mask="url(#mask0_56_55)">
<path d="M46.25 23.75C46.25 36.1762 36.1762 46.25 23.75 46.25C11.3238 46.25 1.25 36.1762 1.25 23.75C1.25 11.3238 11.3238 1.25 23.75 1.25C36.1762 1.25 46.25 11.3238 46.25 23.75Z" fill="#88C9F9"/>
</g>
<mask id="mask1_56_55" style="mask-type:luminance" maskUnits="userSpaceOnUse" x="1" y="1" width="46" height="46">
<path d="M1.25 23.75C1.25 36.1762 11.3238 46.25 23.75 46.25C36.1762 46.25 46.25 36.1762 46.25 23.75C46.25 11.3238 36.1762 1.25 23.75 1.25C11.3238 1.25 1.25 11.3238 1.25 23.75Z" fill="white"/>
</mask>
<g mask="url(#mask1_56_55)">
<path d="M10.8599 3.59375C13.7662 4.13875 15.1574 3.59375 16.2499 3.98375C17.3437 4.375 16.3287 4.92125 17.1099 5.39C17.8912 5.85875 18.1249 5.78125 18.7499 5.54625C19.3749 5.3125 19.8437 4.435 20.3124 4.765C20.7812 5.09625 22.4224 4.80125 22.8137 5.39C23.2037 5.98 23.7512 6.4425 24.6099 6.015C25.4699 5.58875 28.7512 5.18875 29.6099 5.72C30.4699 6.25 32.6562 6.345 33.5162 6.485C34.3749 6.62375 36.5624 6.6975 36.2499 7.06C35.9374 7.4225 37.1099 7.1875 36.4849 8.0475C35.8599 8.90625 33.4374 10.7025 33.2037 10.4688C32.9687 10.2338 32.7349 9.14 31.9537 9.21875C31.1724 9.29625 30.0787 9.0625 30.0012 10C29.9224 10.9375 28.7512 12.1088 29.6099 12.1088C30.4699 12.1088 31.3287 11.25 31.5624 12.1088C31.7974 12.9688 31.6412 13.4375 31.4062 13.9063C31.1724 14.375 31.7187 14.375 30.4699 14.6875C29.2199 15 29.7662 13.985 29.2199 15C28.6724 16.0163 27.4224 16.3288 27.7349 17.1875C28.0474 18.0475 28.2824 18.5163 28.3599 19.2188C28.4387 19.9225 27.5787 20.7813 27.1099 21.4063C26.6412 22.0313 26.0949 22.6563 25.3912 22.8125C24.6887 22.9688 24.1412 23.125 23.7512 24.14C23.3599 25.1563 24.1774 26.64 23.0262 26.4838C21.8762 26.3275 21.2512 25.625 21.1724 25.0775C21.0949 24.5313 19.9224 23.4375 19.8437 23.125C19.7662 22.8125 18.2812 21.7188 18.2812 21.7188C18.2812 21.7188 17.3437 22.6563 17.3437 23.75C17.3437 24.8438 17.6562 26.1713 17.6562 26.1713C17.6562 26.1713 17.2662 26.7188 16.4849 26.0938C15.7037 25.4688 14.8449 25.3125 14.4537 24.4525C14.0637 23.5938 13.5949 22.11 13.5949 21.5625C13.5949 21.0163 12.6562 19.8438 12.2662 19.8438C11.8749 19.8438 9.92245 20.0788 9.7662 20.3913C9.60995 20.7038 9.1412 21.25 8.7512 21.6413C8.35995 22.0313 7.2662 23.4375 6.87495 23.2038C6.48495 22.9688 4.92245 22.11 4.92245 21.3288C4.92245 20.5475 3.8287 21.0163 3.7512 19.7663C3.67245 18.5163 3.1262 17.4225 2.96995 18.5938C2.8137 19.7663 2.8912 20.1563 3.35995 21.5625C3.8287 22.9688 4.1412 23.4375 4.84495 23.75C5.54745 24.0625 5.15745 24.6088 6.3287 24.4525C7.49995 24.2963 8.2037 23.9063 8.2812 24.375C8.35995 24.8438 8.98495 25.725 7.81245 26.495C6.6412 27.265 6.79745 27.3438 6.0937 28.0463C5.3912 28.75 4.6887 28.515 4.6887 30C4.6887 31.4838 4.6887 31.7188 4.7662 32.9688C4.84495 34.2188 5.0012 35.39 3.90745 36.015C2.8137 36.64 -0.781303 32.265 -1.0938 29.765C-1.4063 27.265 -2.7338 18.9063 -2.26505 16.9538C-1.7963 15 0.703697 8.98375 1.71995 7.8125C2.73495 6.64125 8.35995 3.125 10.8599 3.59375ZM21.1724 27.89C21.1724 28.7488 20.5474 29.6863 21.1724 30.5463C21.7974 31.4063 22.3437 31.4063 22.8912 31.4838C23.4374 31.5625 25.0012 31.4838 23.7512 30.4688C22.4999 29.4525 21.7974 30.2338 21.9537 29.0613C22.1099 27.89 21.1724 27.89 21.1724 27.89Z" fill="#22AFA7"/>
<path d="M29.9224 15.39C29.9224 16.2488 29.2974 17.1863 29.9224 18.0463C30.5474 18.9063 28.6724 19.6088 29.2199 19.6875C29.7661 19.765 32.1099 19.4525 30.8599 18.4375C29.6099 17.4213 30.5474 17.7338 30.7036 16.5613C30.8599 15.39 29.9224 15.39 29.9224 15.39ZM24.2224 29.0625C24.7687 28.03 25.3899 28.0475 26.0149 28.5163C26.6399 28.985 28.5149 29.8438 27.4999 30.2338C26.4837 30.625 26.7836 31.4838 26.0086 30.625C25.2336 29.765 23.6012 30.2338 24.2224 29.0625ZM29.1411 29.6988C29.5649 29.9175 30.2349 30.625 31.1724 30.5475C32.1099 30.4688 32.0324 31.5288 32.9699 31.5063C33.9074 31.485 34.7661 31.7188 35.1561 32.1875C35.5474 32.6563 37.2612 33.36 36.2874 33.4375C35.3124 33.5163 34.9224 32.8125 33.9074 32.5C32.8911 32.1875 32.8136 33.0475 31.7199 32.4225C30.6249 31.7975 29.4536 32.7 29.1411 31.5063C28.8286 30.3125 28.2199 29.2238 29.1411 29.6988ZM20.8937 35.625C21.6112 34.9275 22.1087 34.4538 23.2024 33.9063C24.2962 33.36 26.1712 32.5775 26.6399 32.5C27.1087 32.4213 27.6562 32.2063 27.9687 32.825C28.2812 33.4438 28.6712 33.6725 29.2962 33.4438C29.9212 33.2138 30.6549 33.3488 31.1236 33.7438C31.5924 34.14 32.7336 34.8438 33.1249 35.625C33.5149 36.4063 34.2961 36.25 34.0624 37.1875C33.8274 38.125 34.1399 39.61 33.2811 40.3913C32.4211 41.1713 31.8749 42.1088 30.9374 42.5775C29.9999 43.0463 27.5249 41.875 27.5249 41.1713C27.5249 40.4688 26.6249 39.89 25.9399 39.265C25.2537 38.64 24.8474 38.75 24.2224 39.2188C23.5974 39.6875 23.8274 40.1563 23.0462 40.3125C22.2649 40.4688 20.1849 42.1088 20.2637 40.8588C20.3412 39.61 21.3974 37.4213 20.8937 36.7188C20.3899 36.015 19.7712 36.7175 20.8937 35.625Z" fill="#22AFA7"/>
</g>
</g>
<defs>
<clipPath id="clip0_56_55">
<rect width="47.5" height="47.5" fill="white"/>
</clipPath>
</defs>
</svg>
