<svg width="52" height="52" viewBox="0 0 52 52" fill="none" xmlns="http://www.w3.org/2000/svg">
<path d="M39 17.875H13C11.7071 17.875 10.4671 18.3886 9.55285 19.3029C8.63861 20.2171 8.125 21.4571 8.125 22.75V45.5C8.125 46.7929 8.63861 48.0329 9.55285 48.9471C10.4671 49.8614 11.7071 50.375 13 50.375H39C40.2929 50.375 41.5329 49.8614 42.4471 48.9471C43.3614 48.0329 43.875 46.7929 43.875 45.5V22.75C43.875 21.4571 43.3614 20.2171 42.4471 19.3029C41.5329 18.3886 40.2929 17.875 39 17.875ZM27.95 32.5C28.7244 32.5043 29.466 32.8138 30.0136 33.3614C30.5612 33.909 30.8707 34.6506 30.875 35.425V39.325C30.8707 40.0994 30.5612 40.841 30.0136 41.3886C29.466 41.9362 28.7244 42.2457 27.95 42.25H27.625V43.225C27.625 43.656 27.4538 44.0693 27.149 44.374C26.8443 44.6788 26.431 44.85 26 44.85C25.569 44.85 25.1557 44.6788 24.851 44.374C24.5462 44.0693 24.375 43.656 24.375 43.225V42.25H22.75C22.319 42.25 21.9057 42.0788 21.601 41.774C21.2962 41.4693 21.125 41.056 21.125 40.625C21.125 40.194 21.2962 39.7807 21.601 39.476C21.9057 39.1712 22.319 39 22.75 39H27.625V35.75H24.05C23.2756 35.7457 22.534 35.4362 21.9864 34.8886C21.4388 34.341 21.1293 33.5994 21.125 32.825V28.925C21.1293 28.1506 21.4388 27.409 21.9864 26.8614C22.534 26.3138 23.2756 26.0043 24.05 26H24.375V25.025C24.375 24.594 24.5462 24.1807 24.851 23.876C25.1557 23.5712 25.569 23.4 26 23.4C26.431 23.4 26.8443 23.5712 27.149 23.876C27.4538 24.1807 27.625 24.594 27.625 25.025V26H29.25C29.681 26 30.0943 26.1712 30.399 26.476C30.7038 26.7807 30.875 27.194 30.875 27.625C30.875 28.056 30.7038 28.4693 30.399 28.774C30.0943 29.0788 29.681 29.25 29.25 29.25H24.375V32.5H27.95ZM26 4.875C28.5859 4.875 31.0658 5.90223 32.8943 7.73071C34.7228 9.55919 35.75 12.0391 35.75 14.625H39C39 11.1772 37.6304 7.87058 35.1924 5.43261C32.7544 2.99464 29.4478 1.625 26 1.625C22.5522 1.625 19.2456 2.99464 16.8076 5.43261C14.3696 7.87058 13 11.1772 13 14.625H16.25C16.25 12.0391 17.2772 9.55919 19.1057 7.73071C20.9342 5.90223 23.4141 4.875 26 4.875Z" fill="#6D14B3"/>
</svg>
