<svg width="52" height="52" viewBox="0 0 52 52" fill="none" xmlns="http://www.w3.org/2000/svg">
<path d="M17.3774 14.3406C17.9664 14.3406 18.4438 13.8631 18.4438 13.2742C18.4438 12.6852 17.9664 12.2078 17.3774 12.2078C16.7885 12.2078 16.311 12.6852 16.311 13.2742C16.311 13.8631 16.7885 14.3406 17.3774 14.3406Z" fill="#6D14B3"/>
<path d="M11.436 14.3406C12.025 14.3406 12.5024 13.8631 12.5024 13.2742C12.5024 12.6852 12.025 12.2078 11.436 12.2078C10.8471 12.2078 10.3696 12.6852 10.3696 13.2742C10.3696 13.8631 10.8471 14.3406 11.436 14.3406Z" fill="#6D14B3"/>
<path d="M7.51562 40.0156C7.52578 41.8132 8.97812 43.2656 10.7758 43.2656H41.2242C43.0219 43.2656 44.4742 41.8132 44.4844 40.0156V19.3984H7.51562V40.0156ZM19.6828 23.7453C19.8961 23.532 20.2211 23.4507 20.5156 23.5523L30.8547 26.9953C31.2812 27.1375 31.5148 27.5945 31.3727 28.021C31.332 28.1429 31.2609 28.2445 31.1797 28.3359L28.3055 31.2101L32.3273 35.232C32.6422 35.5468 32.6422 36.0648 32.3273 36.3796C32.0125 36.6945 31.4945 36.6945 31.1797 36.3796L27.1578 32.3578L24.2734 35.232C23.9586 35.5468 23.4406 35.5468 23.1258 35.232C23.0344 35.1406 22.9734 35.039 22.9328 34.9171L19.4797 24.5781C19.3883 24.2835 19.4594 23.9585 19.6828 23.7453ZM23.3086 12.2078C22.7195 12.2078 22.2422 12.6851 22.2422 13.2742C22.2422 13.8632 22.7195 14.3406 23.3086 14.3406C23.8977 14.3406 24.375 13.8632 24.375 13.2742C24.375 12.6851 23.8977 12.2078 23.3086 12.2078Z" fill="#6D14B3"/>
<path d="M26.5688 30.6414H26.579V30.6312L29.0876 28.1226L21.5415 25.6039L24.0603 33.15L26.5688 30.6414Z" fill="#6D14B3"/>
<path d="M41.2242 8.73438H10.7758C8.97812 8.73438 7.52578 10.1867 7.51562 11.9844V17.7734H44.4844V11.9844C44.4742 10.1867 43.0219 8.73438 41.2242 8.73438ZM11.4359 15.9656C9.95312 15.9656 8.74453 14.757 8.74453 13.2742C8.74453 11.7914 9.95312 10.5828 11.4359 10.5828C12.9187 10.5828 14.1273 11.7914 14.1273 13.2742C14.1273 14.757 12.9187 15.9656 11.4359 15.9656ZM17.3773 15.9656C15.8945 15.9656 14.6859 14.757 14.6859 13.2742C14.6859 11.7914 15.8945 10.5828 17.3773 10.5828C18.8602 10.5828 20.0688 11.7914 20.0688 13.2742C20.0688 14.757 18.8602 15.9656 17.3773 15.9656ZM23.3086 15.9656C21.8258 15.9656 20.6172 14.757 20.6172 13.2742C20.6172 11.7914 21.8258 10.5828 23.3086 10.5828C24.7914 10.5828 26 11.7914 26 13.2742C26 14.757 24.8016 15.9656 23.3086 15.9656Z" fill="#6D14B3"/>
</svg>
